<svg xmlns="http://www.w3.org/2000/svg" xmlns:xlink="http://www.w3.org/1999/xlink" id="f6245ee5-e739-4f07-8284-f5c00440f05d" width="871.909" height="596.6" data-name="Layer 1" viewBox="0 0 871.909 596.6"><defs><linearGradient id="faa263ba-4d93-43f3-8f6b-5c0bfeed2f5a" x1="435.954" x2="435.954" y1="161.227" gradientUnits="userSpaceOnUse"><stop offset="0" stop-color="gray" stop-opacity=".25"/><stop offset=".535" stop-color="gray" stop-opacity=".12"/><stop offset="1" stop-color="gray" stop-opacity=".1"/></linearGradient><linearGradient id="e7b3f2b9-2797-469d-a8e7-bdddf2d3c493" x1="895.456" x2="895.456" y1="298.735" y2="178.444" gradientUnits="userSpaceOnUse"><stop offset="0" stop-color="#b3b3b3" stop-opacity=".25"/><stop offset=".535" stop-color="#b3b3b3" stop-opacity=".1"/><stop offset="1" stop-color="#b3b3b3" stop-opacity=".05"/></linearGradient><linearGradient id="b8dc7ddd-0e76-4866-9241-0076e20120d3" x1="858.283" x2="858.283" y1="221.343" y2="215.554" gradientUnits="userSpaceOnUse"><stop offset="0" stop-opacity=".12"/><stop offset=".551" stop-opacity=".09"/><stop offset="1" stop-opacity=".02"/></linearGradient><linearGradient id="febfb89e-07b1-4842-b918-627d114e5328" x1="884.876" x2="884.876" y1="214.701" y2="196.998" xlink:href="#b8dc7ddd-0e76-4866-9241-0076e20120d3"/></defs><title>Search</title><rect width="871.909" height="161.227" fill="url(#faa263ba-4d93-43f3-8f6b-5c0bfeed2f5a)"/><rect width="860.453" height="147.379" x="5.091" y="5.277" fill="#fff"/><rect width="500.194" height="87.713" x="57.939" y="35.365" fill="#f5f5f5"/><path fill="url(#e7b3f2b9-2797-469d-a8e7-bdddf2d3c493)" d="M916.21229,192.66152a46.319,46.319,0,1,0-7.57811,70.55358l33.4839,34.82841a2.25386,2.25386,0,0,0,3.18682.06273l8.34443-8.02231a2.25386,2.25386,0,0,0,.06272-3.18681l-33.4839-34.82842A46.32213,46.32213,0,0,0,916.21229,192.66152Zm-10.42905,55.9852a33.13094,33.13094,0,1,1,.922-46.84515A33.131,33.131,0,0,1,905.78324,248.64672Z" transform="translate(-164.04572 -151.70001)"/><path fill="url(#b8dc7ddd-0e76-4866-9241-0076e20120d3)" d="M858.28282,215.55356c-3.72547,0-3.73167,5.78987,0,5.78987C862.0083,221.34343,862.0145,215.55356,858.28282,215.55356Z" transform="translate(-164.04572 -151.70001)"/><path fill="url(#febfb89e-07b1-4842-b918-627d114e5328)" d="M884.25427,197.00541a27.82923,27.82923,0,0,0-24.00514,12.39878c-1.58285,2.47751,2.91112,4.66665,4.48548,2.2024,4.01726-6.28806,11.65182-10.28019,19.90217-10.07359a25.35931,25.35931,0,0,1,20.6949,12.03672c1.58209,2.60731,5.72583.2365,4.15387-2.354C904.43151,202.88689,894.61425,197.23994,884.25427,197.00541Z" transform="translate(-164.04572 -151.70001)"/><path fill="#6c63ff" d="M916.21229,187.57009a46.319,46.319,0,1,0-7.57811,70.55357l33.4839,34.82842a2.25387,2.25387,0,0,0,3.18682.06272l8.34443-8.0223a2.25387,2.25387,0,0,0,.06272-3.18682l-33.4839-34.82842A46.32211,46.32211,0,0,0,916.21229,187.57009Zm-10.42905,55.9852a33.13094,33.13094,0,1,1,.922-46.84516A33.131,33.131,0,0,1,905.78324,243.55529Z" transform="translate(-164.04572 -151.70001)"/><path fill="#6c63ff" d="M858.28282,210.46212c-3.72547,0-3.73167,5.78988,0,5.78988C862.0083,216.252,862.0145,210.46212,858.28282,210.46212Z" transform="translate(-164.04572 -151.70001)"/><path fill="#6c63ff" d="M884.25427,191.914a27.82923,27.82923,0,0,0-24.00514,12.39878c-1.58285,2.47751,2.91112,4.66665,4.48548,2.2024,4.01726-6.28806,11.65182-10.28019,19.90217-10.07358a25.3593,25.3593,0,0,1,20.6949,12.03671c1.58209,2.60731,5.72583.2365,4.15387-2.354C904.43151,197.79545,894.61425,192.1485,884.25427,191.914Z" transform="translate(-164.04572 -151.70001)"/><rect width="867" height="59" x="4.909" y="240.6" fill="#e0e0e0"/><rect width="867" height="59" x="4.909" y="339.6" fill="#e0e0e0"/><rect width="867" height="59" x="4.909" y="438.6" fill="#e0e0e0"/><rect width="867" height="59" x="4.909" y="537.6" fill="#e0e0e0"/></svg>